# xmcd
#
# Track frame offsets:
#	150
#	15135
#	29740
#	44128
#	55959
#	69505
#	82427
#	97709
#	110136
#	123798
#	134668
#	147463
#	159699
#	173917
#	187744
#	201165
#	214364
#	226932
#	241021
#	252801
#
# Disc length: 3559 seconds
#
# Revision: 0
# Processed by: cddbd v1.5.2PL0 Copyright (c) Steve Scherf et al.
# Submitted via: EasyCDDAExtractor 16.0.6.1
#
DISCID=220de514
DTITLE=Λαμπράκη Χαρούλα - Τραγούδια 45 στροφές-Λαμπράκη Χαρούλα 1
DYEAR=1996
DGENRE=Λαϊκή
TTITLE0=Λαμπράκη Χαρούλα - Απ' τη μιά στιγμή στην άλλη [1964, Κ.Καρουσάκη-Ευτ.
TTITLE0=Παπαγιαννοπούλου]
TTITLE1=Λαμπράκη Χαρούλα - Εκεί που σμίγουν οι καιροί [1968, Τ. Σούκα-Ηρ. Παπα
TTITLE1=σιδέρη]
TTITLE2=Λαμπράκη Χαρούλα - Στα κλωνάρια της καρδιάς μου [1969, Ν. Δαλέζιου]
TTITLE3=Λαμπράκη Χαρούλα-Κατινάρης Αντώνης - Εγώ σού χάρισα καρδιά [1966, Α. Κ
TTITLE3=ατινάρη-Ευτ. Παπαγιαννοπούλου]
TTITLE4=Λαμπράκη Χαρούλα - Δεν κάνω εγώ για τα δεσμά του γάμου [1970, Ν. Δαλέζ
TTITLE4=ιου]
TTITLE5=Λαμπράκη Χαρούλα - Του φτωχού το σπίτι [1969, Βασ. Τσιτσάνη]
TTITLE6=Λαμπράκη Χαρούλα - Βρε κοινωνία άστατη [1966, Ν. Δαλέζιου]
TTITLE7=Λαμπράκη Χαρούλα - Σκάλα από σχοινί θα ρίξω [1970, Α. Ρεπάνη-Κ. Τσιριγ
TTITLE7=ώτη]
TTITLE8=Λαμπράκη Χαρούλα - Δείξε μου πως με πονάς [1965, Ν. Δαλέζιου]
TTITLE9=Λαμπράκη Χαρούλα - Φεύγουν τα νειάτα [1969, Γιάννη Καραμπεσίνη]
TTITLE10=Λαμπράκη Χαρούλα - Μού 'κανες ζημιά μεγάλη [1971, Λ. Μπουρνέλη-Ηρ. Πα
TTITLE10=πασιδέρη]
TTITLE11=Λαμπράκη Χαρούλα - Νά 'ρθεις απόψε που θά 'μαι μόνη [1971, Λ. Μπουρνέ
TTITLE11=λη-Ηρ. Παπασιδέρη]
TTITLE12=Λαμπράκη Χαρούλα - Το ποτήρι [1966, Ν. Δαλέζιου]
TTITLE13=Λαμπράκη Χαρούλα-Κλειδωνιάρης Αντώνης - Άσε με να σ' αγαπάω [1964, Μπ
TTITLE13=Δαλιάνη]
TTITLE14=Λαμπράκη Χαρούλα - Δεν είμαι για πειράματα [1966, Στρ. Ατταλίδη]
TTITLE15=Λαμπράκη Χαρούλα-Χιώτης Μανώλης - Ποτέ δεν είναι αργά [1969, Μαν. Χιώ
TTITLE15=τη]
TTITLE16=Λαμπράκη Χαρούλα - Θέλω να ζεις για μένα [1968, Κ. Παπαδόπουλου-Ηρ. Π
TTITLE16=απασιδέρη]
TTITLE17=Λαμπράκη Χαρούλα - Της καρδιάς τα όνειρα [1966, Βασ. Τσιτσάνη]
TTITLE18=Λαμπράκη Χαρούλα - Τέτοιο άνθρωπο ζητώ [1968, Τ. Σούκα-Ηρ. Παπασιδέρη
TTITLE18=]
TTITLE19=Λαμπράκη Χαρούλα - Πληγωμένη καρδιά [1971, Αντ. Ρεπάνη-Μιχ. Τουτουντζ
TTITLE19=ή]
EXTD=
EXTT0=
EXTT1=
EXTT2=
EXTT3=
EXTT4=
EXTT5=
EXTT6=
EXTT7=
EXTT8=
EXTT9=
EXTT10=
EXTT11=
EXTT12=
EXTT13=
EXTT14=
EXTT15=
EXTT16=
EXTT17=
EXTT18=
EXTT19=
PLAYORDER=
